<?xml version="1.0" encoding="UTF-8" standalone="no"?>
<svg width="124px" height="23px" viewBox="0 0 124 23" version="1.1" xmlns="http://www.w3.org/2000/svg" xmlns:xlink="http://www.w3.org/1999/xlink" xmlns:sketch="http://www.bohemiancoding.com/sketch/ns">
    <!-- Generator: Sketch 3.1.1 (8761) - http://www.bohemiancoding.com/sketch -->
    <title>logo</title>
    <desc>Created with Sketch.</desc>
    <defs></defs>
    <g id="Page-1" stroke="none" stroke-width="1" fill="none" fill-rule="evenodd" sketch:type="MSPage">
        <g id="wegoaudit-level3" sketch:type="MSArtboardGroup" transform="translate(-251.000000, -19.000000)" fill="#1188F0">
            <g id="header" sketch:type="MSLayerGroup">
                <g id="logo" transform="translate(251.000000, 19.000000)" sketch:type="MSShapeGroup">
                    <path d="M101,2.24560345 L101,17.7543966 C101,18.9950886 101.993328,20 103.220776,20 L121.779224,20 C123.005949,20 124,18.9954021 124,17.7543966 L124,2.24560345 C124,1.00491141 123.006672,0 121.779224,0 L103.220776,0 C101.994051,0 101,1.00459793 101,2.24560345 Z M121.779224,1.2244898 C122.338083,1.2244898 122.789474,1.6811443 122.789474,2.24560345 L122.789474,17.7543966 C122.789474,18.3188842 122.337642,18.7755102 121.779224,18.7755102 L103.220776,18.7755102 C102.661917,18.7755102 102.210526,18.3188557 102.210526,17.7543966 L102.210526,2.24560345 C102.210526,1.68111581 102.662358,1.2244898 103.220776,1.2244898 L121.779224,1.2244898 Z M118.350877,8.57142857 L111.289474,8.57142857 C110.732228,8.57142857 110.280702,9.02816327 110.280702,9.59183673 C110.280702,10.1555102 110.732228,10.6122449 111.289474,10.6122449 L118.350877,10.6122449 C118.908123,10.6122449 119.359649,10.1555102 119.359649,9.59183673 C119.359649,9.02816327 118.908123,8.57142857 118.350877,8.57142857 M111.289474,6.53061224 L118.350877,6.53061224 C118.908123,6.53061224 119.359649,6.07387755 119.359649,5.51020408 C119.359649,4.94653061 118.908123,4.48979592 118.350877,4.48979592 L111.289474,4.48979592 C110.732228,4.48979592 110.280702,4.94653061 110.280702,5.51020408 C110.280702,6.07387755 110.732228,6.53061224 111.289474,6.53061224 M107.254386,4.48979592 L106.245614,4.48979592 C105.688368,4.48979592 105.236842,4.94653061 105.236842,5.51020408 C105.236842,6.07387755 105.688368,6.53061224 106.245614,6.53061224 L107.254386,6.53061224 C107.811632,6.53061224 108.263158,6.07387755 108.263158,5.51020408 C108.263158,4.94653061 107.811632,4.48979592 107.254386,4.48979592 M107.254386,8.57142857 L106.245614,8.57142857 C105.688368,8.57142857 105.236842,9.02816327 105.236842,9.59183673 C105.236842,10.1555102 105.688368,10.6122449 106.245614,10.6122449 L107.254386,10.6122449 C107.811632,10.6122449 108.263158,10.1555102 108.263158,9.59183673 C108.263158,9.02816327 107.811632,8.57142857 107.254386,8.57142857 M107.254386,12.6530612 L106.245614,12.6530612 C105.688368,12.6530612 105.236842,13.1097959 105.236842,13.6734694 C105.236842,14.2371429 105.688368,14.6938776 106.245614,14.6938776 L107.254386,14.6938776 C107.811632,14.6938776 108.263158,14.2371429 108.263158,13.6734694 C108.263158,13.1097959 107.811632,12.6530612 107.254386,12.6530612 M118.350877,12.6530612 L111.289474,12.6530612 C110.732228,12.6530612 110.280702,13.1097959 110.280702,13.6734694 C110.280702,14.2371429 110.732228,14.6938776 111.289474,14.6938776 L118.350877,14.6938776 C118.908123,14.6938776 119.359649,14.2371429 119.359649,13.6734694 C119.359649,13.1097959 118.908123,12.6530612 118.350877,12.6530612" id="Rectangle-6"></path>
                    <path d="M9.92,17 L13.52,17 L16.18,3.7 L12.74,3.7 L11.5,11.94 L11.4,11.94 L10,4.7 L6.66,4.7 L5.22,11.92 L5.12,11.92 L3.54,3.7 L0.1,3.7 L2.92,17 L6.58,17 L8.24,9.98 L8.32,9.98 L9.92,17 Z M21.32,6.46 C17.9,6.46 16.18,9.26 16.18,12.16 C16.18,15.2 17.56,17.32 21.08,17.32 C23.32,17.32 24.82,16.28 24.92,16.18 L24.04,13.98 C23.4,14.4 22.52,14.82 21.56,14.82 C20.34,14.82 19.66,14.08 19.58,13.18 C21.54,13.06 24.82,12.48 24.82,9.58 C24.82,7.48 23.42,6.46 21.32,6.46 L21.32,6.46 Z M21.92,9.62 C21.92,10.6 20.5,11.1 19.42,11.16 C19.48,9.78 20.14,8.8 21.14,8.8 C21.62,8.8 21.92,9.12 21.92,9.62 L21.92,9.62 Z M30.12,22.3 C33.14,22.3 34.62,20.44 34.84,17.38 C34.88,16.82 34.9,15.56 34.9,15.04 L34.9,7.26 C33.66,6.72 32,6.46 30.8,6.46 C27.72,6.46 25.56,8.26 25.56,11.7 C25.56,14.14 27,15.7 28.62,15.94 C27.3,16.9 26.52,17.96 26.52,19.42 C26.52,21.2 27.72,22.3 30.12,22.3 L30.12,22.3 Z M31.58,12.92 C31.58,13.82 31,14.3 30.34,14.3 C29.04,14.3 28.9,12.92 28.9,11.66 C28.9,10.24 29.38,8.84 30.76,8.84 C31.1,8.84 31.34,8.88 31.58,8.94 L31.58,12.92 Z M29.52,18.9 C29.52,17.8 30.4,16.7 31.62,16 L31.62,17.02 C31.62,18.86 31.48,19.9 30.44,19.9 C29.86,19.9 29.52,19.62 29.52,18.9 L29.52,18.9 Z M41.06,14.88 C39.88,14.88 39.7,13.3 39.7,11.58 C39.7,9.92 40.12,8.86 41.06,8.86 C42.08,8.86 42.42,9.9 42.42,11.94 C42.42,13.9 42.04,14.88 41.06,14.88 L41.06,14.88 Z M36.3,11.96 C36.3,15.6 38.06,17.32 40.92,17.32 C43.68,17.32 45.88,15.4 45.88,11.64 C45.88,6.94 42.8,6.46 41.2,6.46 C39.02,6.46 36.3,7.76 36.3,11.96 L36.3,11.96 Z M49.62,17 L50.52,14.16 L54.54,14.16 L55.44,17 L59.1,17 L54.5,3.7 L50.64,3.7 L46.32,17 L49.62,17 Z M52.48,6.9 L52.56,6.9 L53.9,11.64 L51.1,11.64 L52.48,6.9 Z M65.4,6.76 L65.4,13.36 C65.4,14.16 64.88,14.72 64.18,14.72 C63.34,14.72 63.24,14.1 63.24,13.2 L63.24,6.76 L59.88,6.76 L59.88,13.64 C59.88,16.06 61,17.26 63.28,17.26 C64.34,17.26 65.3,16.86 65.92,16.04 L66,16.04 L66.14,17 L68.96,17 L68.74,15.06 L68.74,6.76 L65.4,6.76 Z M75.3,6.46 C72.14,6.46 70.28,8.92 70.28,12.38 C70.28,14.68 70.86,17.3 74.22,17.3 C75.36,17.3 76.18,16.88 76.7,16.04 L76.82,16.04 L77,17 L79.8,17 L79.58,14.82 L79.58,3.1 L76.26,3.1 L76.26,6.56 C76.02,6.5 75.74,6.46 75.3,6.46 L75.3,6.46 Z M76.26,13.82 C76.26,14.34 75.78,14.92 75,14.92 C73.9,14.92 73.6,13.66 73.6,12.12 C73.6,10.62 73.92,8.84 75.48,8.84 C75.78,8.84 76.04,8.9 76.26,8.98 L76.26,13.82 Z M85.02,17 L85.02,6.76 L81.66,6.76 L81.66,17 L85.02,17 Z M81.56,3.84 C81.56,4.8 82.24,5.5 83.34,5.5 C84.4,5.5 85.12,4.8 85.12,3.84 C85.12,2.92 84.4,2.18 83.34,2.18 C82.24,2.18 81.56,2.92 81.56,3.84 L81.56,3.84 Z M86.94,3.1 L86.94,13.34 C86.94,15.34 87.08,17.32 90.48,17.32 C91.6,17.32 92.7,16.98 93.32,16.58 L92.6,14.48 C92.26,14.66 91.9,14.8 91.52,14.8 C90.84,14.8 90.32,14.52 90.32,13.42 L90.32,9.38 L92.82,9.38 L92.82,6.76 L90.32,6.76 L90.32,3.1 L86.94,3.1 Z" id="WegoAudit"></path>
                </g>
            </g>
        </g>
    </g>
</svg>